<svg xmlns="http://www.w3.org/2000/svg" viewBox="0 0 800 600"><defs><style>.cls-1{fill:#f0f3f7;}.cls-2{fill:#fff;}.cls-3{fill:#969daa;}.cls-4{fill:#0c1724;}.cls-5{fill:#363c44;}.cls-6{fill:#e20883;}.cls-7{fill:#ed0080;}</style></defs><g id="Observability"><rect class="cls-1" x="159.84" y="-10.21" width="480.32" height="593.92" transform="translate(686.75 -113.25) rotate(90)"/><circle class="cls-2" cx="396.62" cy="350.94" r="77.16"/><path class="cls-3" d="M396.62,429.35A78.41,78.41,0,1,1,475,350.94,78.49,78.49,0,0,1,396.62,429.35Zm0-154.32a75.91,75.91,0,1,0,75.91,75.91A76,76,0,0,0,396.62,275Z"/><path class="cls-4" d="M340.65,358.52a6.51,6.51,0,0,1-3.54-.9,5.51,5.51,0,0,1-2.15-2.51,9.19,9.19,0,0,1-.71-3.73,9.49,9.49,0,0,1,.71-3.79,5.56,5.56,0,0,1,2.15-2.53,7.45,7.45,0,0,1,7.1,0,5.62,5.62,0,0,1,2.14,2.5,9.24,9.24,0,0,1,.7,3.74,9.41,9.41,0,0,1-.7,3.78,5.6,5.6,0,0,1-2.14,2.53A6.43,6.43,0,0,1,340.65,358.52Zm0-2.6a3,3,0,0,0,2.55-1.18,7.22,7.22,0,0,0,0-6.8,3.32,3.32,0,0,0-5.08,0,7.08,7.08,0,0,0,0,6.8A2.92,2.92,0,0,0,340.65,355.92Z"/><path class="cls-4" d="M349.17,358.24v-14.3H352V349a3.23,3.23,0,0,1,1.22-1,3.92,3.92,0,0,1,1.74-.36,4.05,4.05,0,0,1,2.38.69,4.34,4.34,0,0,1,1.49,1.89,7.52,7.52,0,0,1,0,5.52,4.46,4.46,0,0,1-1.56,2,4.23,4.23,0,0,1-2.5.71,3.59,3.59,0,0,1-1.73-.38,3.16,3.16,0,0,1-1.19-1l-.2,1.22Zm2.8-6.16v2a1.58,1.58,0,0,0,.67,1.43,2.55,2.55,0,0,0,1.47.45,2,2,0,0,0,1.75-.8,3.53,3.53,0,0,0,.59-2.14,3.63,3.63,0,0,0-.58-2.13,2,2,0,0,0-1.74-.81,2.56,2.56,0,0,0-1,.21,2,2,0,0,0-.81.64A1.78,1.78,0,0,0,352,352.08Z"/><path class="cls-4" d="M360.53,355.18h2.69a1.26,1.26,0,0,0,.73.88,2.73,2.73,0,0,0,1.13.24,2.56,2.56,0,0,0,1.24-.27.88.88,0,0,0,.5-.83.75.75,0,0,0-.37-.7,3.39,3.39,0,0,0-1.19-.3l-.86-.1a7.77,7.77,0,0,1-1.9-.47,2.81,2.81,0,0,1-1.28-1,2.93,2.93,0,0,1-.46-1.71,2.86,2.86,0,0,1,1.16-2.36,5,5,0,0,1,3.14-.9,4.86,4.86,0,0,1,3.11.9,3.34,3.34,0,0,1,1.25,2.38h-2.66a1.18,1.18,0,0,0-.64-.91,2.47,2.47,0,0,0-1-.23,2.16,2.16,0,0,0-1.16.27.84.84,0,0,0-.42.73.75.75,0,0,0,.29.61,2.23,2.23,0,0,0,1.11.33l.86.1a8.71,8.71,0,0,1,1.95.44,3.27,3.27,0,0,1,1.41,1,2.81,2.81,0,0,1,.52,1.8,2.94,2.94,0,0,1-1.16,2.42,5.19,5.19,0,0,1-3.36.94,5.27,5.27,0,0,1-3.26-.88A3.22,3.22,0,0,1,360.53,355.18Z"/><path class="cls-4" d="M380.82,355.1a3.41,3.41,0,0,1-.7,1.63,3.9,3.9,0,0,1-1.6,1.24,5.93,5.93,0,0,1-2.48.47,5.46,5.46,0,0,1-2.83-.67,4.25,4.25,0,0,1-1.69-1.87,6.51,6.51,0,0,1-.56-2.76,6.65,6.65,0,0,1,.58-2.83,4.47,4.47,0,0,1,1.72-1.93,5.33,5.33,0,0,1,2.8-.7,5,5,0,0,1,2.68.67,4.28,4.28,0,0,1,1.63,1.82,6.24,6.24,0,0,1,.53,2.61,5.43,5.43,0,0,1,0,.56,3.4,3.4,0,0,1-.06.52h-7a3.37,3.37,0,0,0,.69,1.76,2,2,0,0,0,1.61.64,2.5,2.5,0,0,0,1.28-.3,1.53,1.53,0,0,0,.72-.86Zm-4.68-5.34c-1.24,0-2,.72-2.26,2.16h3.68a.6.6,0,0,0,.41-.1.41.41,0,0,0,.11-.34,1.69,1.69,0,0,0-.5-1.18A1.86,1.86,0,0,0,376.14,349.76Z"/><path class="cls-4" d="M382.79,358.24V347.88h2.42l.22,1.46a3.36,3.36,0,0,1,1.1-1.12,3.11,3.11,0,0,1,1.68-.44l.47,0,.39.07v2.5h-.78a3.18,3.18,0,0,0-2,.55,2.24,2.24,0,0,0-.68,1.85v5.46Z"/><path class="cls-4" d="M393.55,358.24l-3.5-10.36h3.06l1.9,6.94c.08.24.18.36.28.36s.2-.12.28-.36l1.9-6.94h3L397,358.24Z"/><path class="cls-4" d="M407.92,358.24l-.18-1.12a3,3,0,0,1-1.17.94,4.35,4.35,0,0,1-1.95.38,3.83,3.83,0,0,1-2.61-.82,2.82,2.82,0,0,1-.95-2.24,2.67,2.67,0,0,1,1.75-2.74,7,7,0,0,1,1.75-.44l2.08-.28a1.5,1.5,0,0,0,.71-.22.54.54,0,0,0,.17-.44,1.44,1.44,0,0,0-.38-.95,1.74,1.74,0,0,0-1.32-.43,2.24,2.24,0,0,0-1.25.34,1.35,1.35,0,0,0-.59,1h-2.6a3.21,3.21,0,0,1,.55-1.77,3.72,3.72,0,0,1,1.55-1.3,5.77,5.77,0,0,1,2.48-.49,4.35,4.35,0,0,1,3.21,1.11,4.18,4.18,0,0,1,1.11,3.09v6.36Zm-.38-3.5v-1.06l-2.28.3a2.47,2.47,0,0,0-1.08.38.93.93,0,0,0-.38.8,1,1,0,0,0,.43.86,2,2,0,0,0,1.17.3,3,3,0,0,0,1.48-.38A1.28,1.28,0,0,0,407.54,354.74Z"/><path class="cls-4" d="M412.54,358.24v-14.3h2.8V349a3.3,3.3,0,0,1,1.22-1,3.92,3.92,0,0,1,1.74-.36,4,4,0,0,1,2.38.69,4.34,4.34,0,0,1,1.49,1.89,7.52,7.52,0,0,1,0,5.52,4.46,4.46,0,0,1-1.56,2,4.21,4.21,0,0,1-2.5.71,3.65,3.65,0,0,1-1.73-.38,3.31,3.31,0,0,1-1.19-1l-.2,1.22Zm2.8-6.16v2a1.58,1.58,0,0,0,.67,1.43,2.6,2.6,0,0,0,1.47.45,2,2,0,0,0,1.75-.8,4.19,4.19,0,0,0,0-4.27,2,2,0,0,0-1.74-.81,2.6,2.6,0,0,0-1,.21,2,2,0,0,0-.81.64A1.85,1.85,0,0,0,415.34,352.08Z"/><path class="cls-4" d="M424.46,346.54v-2.6h3v2.6Zm.08,11.7V347.88h2.8v10.36Z"/><path class="cls-4" d="M429.68,358.24v-14.3h2.79v14.3Z"/><path class="cls-4" d="M434.73,346.54v-2.6h3v2.6Zm.08,11.7V347.88h2.8v10.36Z"/><path class="cls-4" d="M440.66,355.26v-5.12H439V348H440a.94.94,0,0,0,.58-.13.86.86,0,0,0,.2-.57l.3-2.38h2.32v3h2.34v2.26h-2.32v4.64a1.41,1.41,0,0,0,.29,1,1.54,1.54,0,0,0,1.11.3H446v2.18c-.26,0-.56.08-.93.11a10.31,10.31,0,0,1-1.11.05,3.42,3.42,0,0,1-2.5-.78A3.27,3.27,0,0,1,440.66,355.26Z"/><path class="cls-4" d="M448.14,362.08V359.9h.7a5.26,5.26,0,0,0,1.05-.09,1.38,1.38,0,0,0,.72-.39,2.69,2.69,0,0,0,.51-.92l.14-.4h-.62l-3.58-10.22h3.08l1.88,6.94c.06.24.16.36.28.36s.19-.12.26-.36l1.92-6.94h3l-3.74,11a8,8,0,0,1-1,2.05,2.93,2.93,0,0,1-1.29,1.05,5.13,5.13,0,0,1-1.89.3,5.54,5.54,0,0,1-.78-.06Z"/><rect class="cls-3" x="446.46" y="239.86" width="49.1" height="3" transform="translate(26.46 528.55) rotate(-60)"/><polygon class="cls-3" points="469.33 265.2 451.2 275.67 451.2 254.73 469.33 265.2"/><path class="cls-4" d="M164.71,387.9v-11h2.35v11Z"/><path class="cls-4" d="M169.24,387.9v-8.29h1.94l.16,1a2.59,2.59,0,0,1,.95-.87,3.18,3.18,0,0,1,1.51-.33,2.87,2.87,0,0,1,2.07.74,3,3,0,0,1,.78,2.27v5.44h-2.24v-5c0-.94-.44-1.41-1.31-1.41a1.8,1.8,0,0,0-1.12.37,1.25,1.25,0,0,0-.5,1.07v5Z"/><path class="cls-4" d="M184,384.76h2.16a3.79,3.79,0,0,1-.53,1.61,3.36,3.36,0,0,1-1.26,1.22,4.05,4.05,0,0,1-2,.47,4.33,4.33,0,0,1-2.25-.54A3.4,3.4,0,0,1,178.7,386a5.08,5.08,0,0,1-.46-2.23,5.22,5.22,0,0,1,.47-2.26,3.5,3.5,0,0,1,1.38-1.54,4.3,4.3,0,0,1,2.26-.55,3.92,3.92,0,0,1,2,.46,3.25,3.25,0,0,1,1.23,1.21,4,4,0,0,1,.5,1.62h-2.16a1.49,1.49,0,0,0-1.58-1.34A1.57,1.57,0,0,0,181,382a2.93,2.93,0,0,0-.46,1.77,2.74,2.74,0,0,0,.46,1.69,1.55,1.55,0,0,0,1.33.62,1.75,1.75,0,0,0,1.09-.34A1.6,1.6,0,0,0,184,384.76Z"/><path class="cls-4" d="M187.65,378.54v-2.08H190v2.08Zm.07,9.36v-8.29H190v8.29Z"/><path class="cls-4" d="M197.78,387.9l-.18-1.06a2.42,2.42,0,0,1-1,.9,3.43,3.43,0,0,1-1.49.32,3.19,3.19,0,0,1-1.9-.56A3.63,3.63,0,0,1,192,386a6,6,0,0,1,0-4.4,3.49,3.49,0,0,1,1.21-1.55,3.25,3.25,0,0,1,2-.57,2.71,2.71,0,0,1,2.28,1v-4h2.24V387.9Zm-.31-3.36V382.9a1.29,1.29,0,0,0-.53-1.14,2.11,2.11,0,0,0-1.19-.36,1.62,1.62,0,0,0-1.39.64,3.38,3.38,0,0,0,0,3.42,1.6,1.6,0,0,0,1.38.65,2.16,2.16,0,0,0,.83-.17,1.61,1.61,0,0,0,.66-.52A1.47,1.47,0,0,0,197.47,384.54Z"/><path class="cls-4" d="M209.26,385.39a2.76,2.76,0,0,1-.56,1.3,3.31,3.31,0,0,1-1.28,1,4.74,4.74,0,0,1-2,.38,4.35,4.35,0,0,1-2.26-.54,3.41,3.41,0,0,1-1.35-1.49,5.16,5.16,0,0,1-.45-2.21,5.41,5.41,0,0,1,.46-2.27,3.55,3.55,0,0,1,1.38-1.54,4.25,4.25,0,0,1,2.24-.56,4,4,0,0,1,2.14.54,3.32,3.32,0,0,1,1.3,1.45,4.82,4.82,0,0,1,.43,2.09c0,.14,0,.29,0,.45a3.53,3.53,0,0,1-.05.41h-5.6a2.59,2.59,0,0,0,.55,1.41,1.6,1.6,0,0,0,1.29.51,2,2,0,0,0,1-.24,1.29,1.29,0,0,0,.58-.68Zm-3.75-4.28c-1,0-1.59.58-1.8,1.73h2.94a.47.47,0,0,0,.33-.08.34.34,0,0,0,.09-.27,1.37,1.37,0,0,0-.4-.94A1.5,1.5,0,0,0,205.51,381.11Z"/><path class="cls-4" d="M211,387.9v-8.29h1.93l.16,1a2.62,2.62,0,0,1,1-.87,3.15,3.15,0,0,1,1.51-.33,2.9,2.9,0,0,1,2.07.74,3,3,0,0,1,.78,2.27v5.44h-2.24v-5q0-1.41-1.32-1.41a1.82,1.82,0,0,0-1.12.37,1.24,1.24,0,0,0-.49,1.07v5Z"/><path class="cls-4" d="M220.93,385.51v-4.09h-1.35v-1.75h.85a.78.78,0,0,0,.47-.1.75.75,0,0,0,.16-.46l.23-1.9h1.86v2.4H225v1.81h-1.85v3.71a1.12,1.12,0,0,0,.23.81,1.18,1.18,0,0,0,.89.25h.89v1.74l-.74.09c-.29,0-.59,0-.89,0a2.73,2.73,0,0,1-2-.63A2.62,2.62,0,0,1,220.93,385.51Z"/><path class="cls-4" d="M160.4,406.9v-8.29h1.94l.17,1.17a2.61,2.61,0,0,1,.88-.9,2.51,2.51,0,0,1,1.35-.35l.37,0,.31.06v2h-.62a2.56,2.56,0,0,0-1.62.44,1.81,1.81,0,0,0-.54,1.48v4.37Z"/><path class="cls-4" d="M174.3,404.39a2.76,2.76,0,0,1-.56,1.3,3.31,3.31,0,0,1-1.28,1,4.72,4.72,0,0,1-2,.38,4.36,4.36,0,0,1-2.27-.54,3.41,3.41,0,0,1-1.35-1.49,5.16,5.16,0,0,1-.45-2.21,5.26,5.26,0,0,1,.47-2.27,3.53,3.53,0,0,1,1.37-1.54,4.25,4.25,0,0,1,2.24-.56,4,4,0,0,1,2.15.54,3.36,3.36,0,0,1,1.29,1.45,4.82,4.82,0,0,1,.43,2.09c0,.14,0,.29,0,.45a3.53,3.53,0,0,1,0,.41h-5.6a2.59,2.59,0,0,0,.55,1.41,1.6,1.6,0,0,0,1.29.51,2,2,0,0,0,1-.24,1.29,1.29,0,0,0,.58-.68Zm-3.74-4.28c-1,0-1.6.58-1.81,1.73h2.94a.47.47,0,0,0,.33-.08.34.34,0,0,0,.09-.27,1.37,1.37,0,0,0-.4-.94A1.49,1.49,0,0,0,170.56,400.11Z"/><path class="cls-4" d="M175.55,404.45h2.16a1,1,0,0,0,.58.7,2.19,2.19,0,0,0,.91.2,2.13,2.13,0,0,0,1-.22.7.7,0,0,0,.4-.66.62.62,0,0,0-.3-.57,2.81,2.81,0,0,0-.95-.24l-.68-.07a6.14,6.14,0,0,1-1.52-.38,2.34,2.34,0,0,1-1-.78,2.38,2.38,0,0,1-.37-1.37,2.28,2.28,0,0,1,.93-1.89,4,4,0,0,1,2.51-.72,3.84,3.84,0,0,1,2.48.72,2.63,2.63,0,0,1,1,1.9h-2.13a.91.91,0,0,0-.51-.72,1.84,1.84,0,0,0-.83-.19,1.66,1.66,0,0,0-.93.22.66.66,0,0,0-.33.58.6.6,0,0,0,.22.49,1.88,1.88,0,0,0,.9.26l.68.08a6.61,6.61,0,0,1,1.56.36,2.47,2.47,0,0,1,1.12.78,2.19,2.19,0,0,1,.43,1.44,2.4,2.4,0,0,1-.93,1.94,5.18,5.18,0,0,1-5.3,0A2.62,2.62,0,0,1,175.55,404.45Z"/><path class="cls-4" d="M184.46,409.94V398.61h1.93l.18,1.05a2.52,2.52,0,0,1,1-.89,3.43,3.43,0,0,1,1.49-.32,3.19,3.19,0,0,1,1.9.56,3.47,3.47,0,0,1,1.18,1.52,6.07,6.07,0,0,1,0,4.41,3.6,3.6,0,0,1-1.2,1.55,3.29,3.29,0,0,1-2,.57,2.75,2.75,0,0,1-2.29-1v3.89Zm2.24-8v1.63a1.28,1.28,0,0,0,.53,1.14,2.05,2.05,0,0,0,1.2.37,1.63,1.63,0,0,0,1.38-.64,3.38,3.38,0,0,0,0-3.42,1.6,1.6,0,0,0-1.38-.65,2.16,2.16,0,0,0-.83.17,1.51,1.51,0,0,0-.66.51A1.46,1.46,0,0,0,186.7,402Z"/><path class="cls-4" d="M198,407.06a4.4,4.4,0,0,1-2.3-.55,3.39,3.39,0,0,1-1.39-1.51,5.22,5.22,0,0,1-.45-2.23,5.17,5.17,0,0,1,.46-2.25,3.58,3.58,0,0,1,1.39-1.52,4.41,4.41,0,0,1,2.29-.55,4.49,4.49,0,0,1,2.31.54,3.41,3.41,0,0,1,1.38,1.51,5.63,5.63,0,0,1,0,4.48,3.53,3.53,0,0,1-1.38,1.53A4.5,4.5,0,0,1,198,407.06Zm0-1.95a1.64,1.64,0,0,0,1.39-.63,2.86,2.86,0,0,0,.47-1.74,2.79,2.79,0,0,0-.47-1.72,1.66,1.66,0,0,0-1.39-.62,1.62,1.62,0,0,0-1.38.62,2.78,2.78,0,0,0-.47,1.75,2.73,2.73,0,0,0,.47,1.72A1.62,1.62,0,0,0,198,405.11Z"/><path class="cls-4" d="M203.82,406.9v-8.29h1.94l.16,1a2.59,2.59,0,0,1,1-.87,3.18,3.18,0,0,1,1.51-.33,2.87,2.87,0,0,1,2.07.74,3,3,0,0,1,.78,2.27v5.44H209v-5c0-.94-.44-1.41-1.31-1.41a1.8,1.8,0,0,0-1.12.37,1.25,1.25,0,0,0-.5,1.07v5Z"/><path class="cls-4" d="M212.71,404.45h2.16a1,1,0,0,0,.58.7,2.16,2.16,0,0,0,.91.2,2.13,2.13,0,0,0,1-.22.7.7,0,0,0,.4-.66.62.62,0,0,0-.3-.57,2.81,2.81,0,0,0-.95-.24l-.69-.07a6.37,6.37,0,0,1-1.52-.38,2.37,2.37,0,0,1-1-.78,2.31,2.31,0,0,1-.37-1.37,2.28,2.28,0,0,1,.93-1.89,4,4,0,0,1,2.51-.72,3.85,3.85,0,0,1,2.48.72,2.63,2.63,0,0,1,1,1.9H217.7a.91.91,0,0,0-.51-.72,1.87,1.87,0,0,0-.83-.19,1.64,1.64,0,0,0-.93.22.67.67,0,0,0-.34.58.61.61,0,0,0,.23.49,1.88,1.88,0,0,0,.89.26l.69.08a6.52,6.52,0,0,1,1.55.36,2.5,2.5,0,0,1,1.13.78,2.25,2.25,0,0,1,.43,1.44,2.4,2.4,0,0,1-.93,1.94,4.2,4.2,0,0,1-2.69.75,4.29,4.29,0,0,1-2.62-.71A2.61,2.61,0,0,1,212.71,404.45Z"/><path class="cls-4" d="M229.1,404.39a2.76,2.76,0,0,1-.56,1.3,3.24,3.24,0,0,1-1.28,1,4.69,4.69,0,0,1-2,.38,4.38,4.38,0,0,1-2.27-.54,3.41,3.41,0,0,1-1.35-1.49,5.16,5.16,0,0,1-.45-2.21,5.26,5.26,0,0,1,.47-2.27,3.59,3.59,0,0,1,1.37-1.54,4.25,4.25,0,0,1,2.24-.56,4,4,0,0,1,2.15.54,3.3,3.3,0,0,1,1.29,1.45,4.82,4.82,0,0,1,.44,2.09c0,.14,0,.29,0,.45a3.53,3.53,0,0,1-.05.41h-5.6a2.67,2.67,0,0,0,.55,1.41,1.63,1.63,0,0,0,1.29.51,2,2,0,0,0,1-.24,1.27,1.27,0,0,0,.57-.68Zm-3.74-4.28c-1,0-1.6.58-1.81,1.73h2.94a.47.47,0,0,0,.33-.08.34.34,0,0,0,.09-.27,1.33,1.33,0,0,0-.4-.94A1.49,1.49,0,0,0,225.36,400.11Z"/><path class="cls-5" d="M223,361H166.43a3.4,3.4,0,0,1-1.67-.45,3.32,3.32,0,0,1-1.22-1.22,3.29,3.29,0,0,1-.44-1.67,3.24,3.24,0,0,1,.45-1.67l28.27-48.95a3.45,3.45,0,0,1,1.21-1.22,3.39,3.39,0,0,1,3.34,0,3.45,3.45,0,0,1,1.21,1.22L225.85,356a3.33,3.33,0,0,1,.45,1.66,3.35,3.35,0,0,1-1.67,2.89A3.32,3.32,0,0,1,223,361ZM194.7,307.82a.91.91,0,0,0-.8.46l-28.27,49a.94.94,0,0,0-.13.46.95.95,0,0,0,.47.81.93.93,0,0,0,.46.12H223a.93.93,0,0,0,.46-.12.91.91,0,0,0,.46-.81.93.93,0,0,0-.12-.46l-28.27-49a.91.91,0,0,0-.8-.46Z"/><path class="cls-6" d="M194.75,342.6a1.18,1.18,0,0,1-.85-.36,1.16,1.16,0,0,1-.35-.84V327.16a1.2,1.2,0,0,1,1.2-1.2,1.19,1.19,0,0,1,.85.35,1.21,1.21,0,0,1,.35.85V341.4a1.21,1.21,0,0,1-1.2,1.2Z"/><path class="cls-6" d="M194.75,352a1.2,1.2,0,0,1-1.2-1.2v-2.11a1.19,1.19,0,0,1,.35-.85,1.21,1.21,0,0,1,.85-.35,1.2,1.2,0,0,1,1.2,1.2v2.11a1.21,1.21,0,0,1-.35.85A1.19,1.19,0,0,1,194.75,352Z"/><rect class="cls-3" x="322.41" y="212.61" width="3" height="49.1" transform="translate(-75.18 193.73) rotate(-30)"/><polygon class="cls-3" points="343.72 250.53 343.72 271.46 325.58 261 343.72 250.53"/><path class="cls-4" d="M272.79,202l3.89-11h2.74l3.88,11h-2.54l-.72-2.38h-4l-.72,2.38Zm5-8.24-1.18,3.89h2.81l-1.18-3.89c-.06-.16-.13-.24-.23-.24S277.85,193.57,277.8,193.73Z"/><path class="cls-4" d="M284.64,202v-11H287v11Z"/><path class="cls-4" d="M293.94,202.19a5.25,5.25,0,0,1-2.84-.72,4.46,4.46,0,0,1-1.71-2,7.35,7.35,0,0,1-.57-3,7.51,7.51,0,0,1,.57-3,4.36,4.36,0,0,1,1.71-2,6,6,0,0,1,5.69,0,4.28,4.28,0,0,1,1.7,2,7.28,7.28,0,0,1,.57,3,7.43,7.43,0,0,1-.57,3,4.41,4.41,0,0,1-1.7,2A5.24,5.24,0,0,1,293.94,202.19Zm0-2.08a2.33,2.33,0,0,0,2-.94,5.71,5.71,0,0,0,0-5.44,2.33,2.33,0,0,0-2-.94,2.35,2.35,0,0,0-2,.94,5.71,5.71,0,0,0,0,5.44A2.35,2.35,0,0,0,293.94,200.11Z"/><path class="cls-4" d="M300.77,205V193.68h1.94l.17,1.06a2.51,2.51,0,0,1,1-.9,3.37,3.37,0,0,1,1.49-.32,3.18,3.18,0,0,1,1.89.56,3.56,3.56,0,0,1,1.19,1.52,5.59,5.59,0,0,1,.4,2.19,5.82,5.82,0,0,1-.41,2.22,3.56,3.56,0,0,1-1.21,1.55,3.27,3.27,0,0,1-2,.57,2.76,2.76,0,0,1-2.29-1V205Zm2.24-8v1.63a1.28,1.28,0,0,0,.54,1.15,2.06,2.06,0,0,0,1.19.36,1.61,1.61,0,0,0,1.38-.64,2.8,2.8,0,0,0,.48-1.71,2.86,2.86,0,0,0-.47-1.71,1.6,1.6,0,0,0-1.38-.65,2.2,2.2,0,0,0-.83.17,1.55,1.55,0,0,0-.65.51A1.47,1.47,0,0,0,303,197Z"/><path class="cls-4" d="M309.88,199.52H312a1,1,0,0,0,.57.71,2.4,2.4,0,0,0,.92.19,2,2,0,0,0,1-.22.71.71,0,0,0,.4-.66.59.59,0,0,0-.31-.56,2.3,2.3,0,0,0-.94-.24l-.69-.08a6.37,6.37,0,0,1-1.52-.38,2.19,2.19,0,0,1-1-.78,2.31,2.31,0,0,1-.37-1.37,2.28,2.28,0,0,1,.93-1.89,4,4,0,0,1,2.51-.72,3.85,3.85,0,0,1,2.48.72,2.69,2.69,0,0,1,1,1.91h-2.13a1,1,0,0,0-.51-.73,1.9,1.9,0,0,0-.83-.19,1.73,1.73,0,0,0-.93.22.65.65,0,0,0-.34.58.59.59,0,0,0,.23.49,1.93,1.93,0,0,0,.89.27l.69.08a6.52,6.52,0,0,1,1.55.35,2.5,2.5,0,0,1,1.13.78,2.24,2.24,0,0,1,.42,1.44,2.4,2.4,0,0,1-.92,1.94,4.2,4.2,0,0,1-2.69.75,4.29,4.29,0,0,1-2.62-.7A2.63,2.63,0,0,1,309.88,199.52Z"/><path class="cls-5" d="M297,159h-4.21a1.2,1.2,0,0,1-1.2-1.2A1.21,1.21,0,0,1,292,157a1.19,1.19,0,0,1,.85-.35h3V141.43a1.2,1.2,0,0,1,1.2-1.2h5.43a1.2,1.2,0,0,1,1.2,1.2,1.21,1.21,0,0,1-.35.85,1.19,1.19,0,0,1-.85.35h-4.23v15.18a1.19,1.19,0,0,1-.35.85A1.21,1.21,0,0,1,297,159Z"/><path class="cls-6" d="M306.19,146.19a4.74,4.74,0,0,1-2.68-.8,4.84,4.84,0,0,1-2.08-4.95,4.83,4.83,0,1,1,8.16,4.33A4.86,4.86,0,0,1,306.19,146.19Zm0-7.25a2.48,2.48,0,0,0-1.35.4,2.37,2.37,0,0,0-.9,1.08,2.43,2.43,0,0,0-.15,1.41,2.39,2.39,0,0,0,.66,1.24,2.33,2.33,0,0,0,1.24.67,2.39,2.39,0,0,0,1.4-.13,2.43,2.43,0,0,0,.8-4A2.46,2.46,0,0,0,306.19,138.94Z"/><path class="cls-5" d="M286.83,174.36A1.21,1.21,0,0,1,286,174a1.19,1.19,0,0,1-.35-.85V147.25l-2.92-2.91a1.21,1.21,0,0,1-.28-.39,1.19,1.19,0,0,1-.1-.46,1.27,1.27,0,0,1,.09-.47,1.2,1.2,0,0,1,.26-.4,1.18,1.18,0,0,1,.4-.27,1.09,1.09,0,0,1,.47-.08,1.1,1.1,0,0,1,.47.1,1.21,1.21,0,0,1,.39.28l3.27,3.26a1.16,1.16,0,0,1,.26.39,1.22,1.22,0,0,1,.09.46v26.4a1.2,1.2,0,0,1-1.2,1.2Z"/><path class="cls-5" d="M291.88,174.73a1.16,1.16,0,0,1-.84-.35,1.18,1.18,0,0,1-.36-.85V135.48a1.18,1.18,0,0,1,.36-.85l5.14-5.12a1.2,1.2,0,0,1,1.69,1.69l-4.8,4.8v37.56a1.24,1.24,0,0,1-.36.83A1.17,1.17,0,0,1,291.88,174.73Z"/><path class="cls-6" d="M299.65,132.45a4.82,4.82,0,0,1-4.73-5.76,4.82,4.82,0,0,1,3.79-3.79,4.82,4.82,0,1,1,.94,9.55Zm0-7.25a2.49,2.49,0,0,0-1.35.41,2.43,2.43,0,0,0-.89,1.09,2.42,2.42,0,0,0,.52,2.64,2.48,2.48,0,0,0,1.24.67,2.52,2.52,0,0,0,1.41-.14,2.43,2.43,0,0,0,1.08-.9,2.35,2.35,0,0,0,.41-1.34,2.42,2.42,0,0,0-2.42-2.43Z"/><path class="cls-6" d="M281.08,145.78a4.86,4.86,0,0,1-2.68-.82,4.83,4.83,0,0,1-2-5,4.71,4.71,0,0,1,1.32-2.47,4.82,4.82,0,1,1,3.4,8.24Zm0-7.25a2.46,2.46,0,0,0-1.34.41,2.43,2.43,0,0,0-.89,1.09,2.4,2.4,0,0,0-.14,1.4,2.46,2.46,0,0,0,.66,1.24,2.41,2.41,0,0,0,3.73-.37,2.38,2.38,0,0,0,.41-1.34,2.42,2.42,0,0,0-2.43-2.43Z"/><path class="cls-5" d="M302.23,175.11H278.12a1.22,1.22,0,0,1-.82-.32,1.16,1.16,0,0,1-.38-.79c0-.2-1.52-19.79-4.86-25.58a.06.06,0,0,0,0,0c-8.41-16.46-2.5-25.64,1.77-29.66,8.19-7.69,23.66-9.09,33.79-3.07,7.51,4.48,10.52,12.2,8.31,21.22.71,1.36,4,6.75,6.35,10.45a1.12,1.12,0,0,1,.17.46,1.05,1.05,0,0,1,0,.5,1.22,1.22,0,0,1-.22.44,1.3,1.3,0,0,1-.39.31l-3,1.52a13.18,13.18,0,0,0-2.29,8.66,6.61,6.61,0,0,1-3.53,6.4,11.15,11.15,0,0,1-4.24,1.35,10.9,10.9,0,0,1-4.43-.41l-.86,7.52a1.21,1.21,0,0,1-1.2,1.05Zm-23-2.4h21.94l.94-8.11a1.18,1.18,0,0,1,.22-.57,1.21,1.21,0,0,1,.46-.38,1.13,1.13,0,0,1,.6-.11,1.09,1.09,0,0,1,.57.2c1.88,1.25,5.45,1.15,7.79-.23a4.27,4.27,0,0,0,2.35-4.13,15.19,15.19,0,0,1,3-10.58,1.16,1.16,0,0,1,.37-.29l2.07-1c-6.27-10-6.21-10.23-6-10.84,2.14-8.19-.4-14.91-7.12-18.91-9.29-5.52-23.44-4.26-30.92,2.76-6.52,6.12-7,15.62-1.29,26.77C277.31,152.76,278.85,168.36,279.22,172.71Zm36.6-35.49v0S315.81,137.23,315.82,137.22Z"/><path class="cls-4" d="M434.24,202v-11h2.35v11Z"/><path class="cls-4" d="M438.64,202v-8.29h1.94l.16,1a2.48,2.48,0,0,1,.95-.86,3,3,0,0,1,1.51-.34,2.87,2.87,0,0,1,2.07.74,3,3,0,0,1,.78,2.27V202h-2.24v-5c0-.94-.44-1.41-1.31-1.41a1.8,1.8,0,0,0-1.12.37,1.25,1.25,0,0,0-.5,1.07v5Z"/><path class="cls-4" d="M447.39,199.52h2.16a1,1,0,0,0,.58.7,2.19,2.19,0,0,0,.91.2,2.1,2.1,0,0,0,1-.22.69.69,0,0,0,.4-.66.59.59,0,0,0-.3-.56,2.36,2.36,0,0,0-.95-.24l-.68-.08a6.14,6.14,0,0,1-1.52-.38,2.34,2.34,0,0,1-1-.78,2.38,2.38,0,0,1-.37-1.37,2.28,2.28,0,0,1,.93-1.89,4,4,0,0,1,2.51-.72,3.84,3.84,0,0,1,2.48.72,2.65,2.65,0,0,1,1,1.9h-2.13a.91.91,0,0,0-.51-.72,1.84,1.84,0,0,0-.83-.19,1.69,1.69,0,0,0-.93.22.66.66,0,0,0-.33.58.59.59,0,0,0,.22.49,1.88,1.88,0,0,0,.9.26l.68.08a7.14,7.14,0,0,1,1.56.36,2.47,2.47,0,0,1,1.12.78,2.19,2.19,0,0,1,.43,1.44,2.38,2.38,0,0,1-.93,1.94,4.19,4.19,0,0,1-2.69.75,4.24,4.24,0,0,1-2.61-.71A2.62,2.62,0,0,1,447.39,199.52Z"/><path class="cls-4" d="M456.79,199.58v-4.09h-1.35v-1.75h.85a.72.72,0,0,0,.46-.1.69.69,0,0,0,.17-.46l.24-1.9H459v2.4h1.87v1.81H459v3.71a1.15,1.15,0,0,0,.23.82,1.23,1.23,0,0,0,.89.24H461V202l-.74.09c-.29,0-.59,0-.89,0a2.73,2.73,0,0,1-2-.63A2.62,2.62,0,0,1,456.79,199.58Z"/><path class="cls-4" d="M462.48,202v-8.29h1.94l.17,1.17a2.73,2.73,0,0,1,.89-.9,2.5,2.5,0,0,1,1.34-.35l.38,0,.31.06v2h-.63a2.53,2.53,0,0,0-1.61.44,1.78,1.78,0,0,0-.55,1.48V202Z"/><path class="cls-4" d="M468.67,199.12v-5.44h2.24v5c0,.95.43,1.42,1.28,1.42a1.76,1.76,0,0,0,1.1-.37,1.29,1.29,0,0,0,.48-1.08v-5H476V202h-1.93l-.16-1a2.56,2.56,0,0,1-.95.86,3,3,0,0,1-1.48.34,2.8,2.8,0,0,1-2.05-.75A3,3,0,0,1,468.67,199.12Z"/><path class="cls-4" d="M477.9,202v-8.29h1.93l.17,1a2.44,2.44,0,0,1,.9-.84,2.84,2.84,0,0,1,1.46-.34,2.53,2.53,0,0,1,1.33.34,2.26,2.26,0,0,1,.9,1,2.7,2.7,0,0,1,1-1,3.11,3.11,0,0,1,1.6-.39,2.83,2.83,0,0,1,2,.74,3,3,0,0,1,.78,2.27V202h-2.25v-5q0-1.41-1.29-1.41a1.42,1.42,0,0,0-1,.37,1.34,1.34,0,0,0-.42,1.07v5h-2.24v-5c0-.94-.42-1.41-1.25-1.41a1.49,1.49,0,0,0-1,.37,1.29,1.29,0,0,0-.45,1.07v5Z"/><path class="cls-4" d="M499.35,199.46a2.87,2.87,0,0,1-.56,1.3,3.31,3.31,0,0,1-1.28,1,4.77,4.77,0,0,1-2,.38,4.35,4.35,0,0,1-2.26-.54,3.31,3.31,0,0,1-1.35-1.49,5.16,5.16,0,0,1-.45-2.21,5.26,5.26,0,0,1,.46-2.27,3.55,3.55,0,0,1,1.38-1.54,4.23,4.23,0,0,1,2.24-.56,4,4,0,0,1,2.14.54,3.32,3.32,0,0,1,1.3,1.45,4.85,4.85,0,0,1,.43,2.09,3.54,3.54,0,0,1,0,.45,3.79,3.79,0,0,1,0,.41h-5.6a2.52,2.52,0,0,0,.55,1.41,1.6,1.6,0,0,0,1.29.51,2,2,0,0,0,1-.24,1.25,1.25,0,0,0,.58-.68Zm-3.75-4.28c-1,0-1.59.58-1.81,1.73h2.95a.47.47,0,0,0,.33-.08.38.38,0,0,0,.08-.27,1.33,1.33,0,0,0-.4-.94A1.48,1.48,0,0,0,495.6,195.18Z"/><path class="cls-4" d="M500.94,202v-8.29h1.93l.16,1a2.59,2.59,0,0,1,1-.86,3,3,0,0,1,1.51-.34,2.9,2.9,0,0,1,2.07.74,3,3,0,0,1,.78,2.27V202h-2.24v-5q0-1.41-1.32-1.41a1.82,1.82,0,0,0-1.12.37,1.24,1.24,0,0,0-.49,1.07v5Z"/><path class="cls-4" d="M510.74,199.58v-4.09H509.4v-1.75h.85a.76.76,0,0,0,.46-.1.69.69,0,0,0,.16-.46l.24-1.9H513v2.4h1.88v1.81H513v3.71a1.2,1.2,0,0,0,.23.82,1.25,1.25,0,0,0,.89.24h.9V202l-.75.09c-.29,0-.59,0-.88,0a2.71,2.71,0,0,1-2-.63A2.58,2.58,0,0,1,510.74,199.58Z"/><path class="cls-4" d="M521.66,202l-.15-.9a2.37,2.37,0,0,1-.93.75,3.41,3.41,0,0,1-1.56.31,3.08,3.08,0,0,1-2.09-.66,2.23,2.23,0,0,1-.76-1.79,2.11,2.11,0,0,1,1.4-2.19,5.42,5.42,0,0,1,1.4-.35l1.66-.23a1.32,1.32,0,0,0,.57-.17.46.46,0,0,0,.14-.36,1.11,1.11,0,0,0-.31-.76,1.38,1.38,0,0,0-1-.34,1.76,1.76,0,0,0-1,.27,1.12,1.12,0,0,0-.48.82h-2.08a2.76,2.76,0,0,1,.44-1.42,3.05,3.05,0,0,1,1.24-1,4.62,4.62,0,0,1,2-.39,3.5,3.5,0,0,1,2.57.89,3.33,3.33,0,0,1,.88,2.47V202Zm-.31-2.8v-.85l-1.82.24a2,2,0,0,0-.86.3.74.74,0,0,0-.31.64.79.79,0,0,0,.35.69,1.58,1.58,0,0,0,.93.24,2.33,2.33,0,0,0,1.18-.3A1,1,0,0,0,521.35,199.17Z"/><path class="cls-4" d="M525.9,199.58v-4.09h-1.35v-1.75h.85a.74.74,0,0,0,.46-.1.64.64,0,0,0,.16-.46l.24-1.9h1.86v2.4H530v1.81h-1.85v3.71a1.15,1.15,0,0,0,.23.82,1.23,1.23,0,0,0,.89.24h.89V202l-.74.09c-.29,0-.59,0-.89,0a2.73,2.73,0,0,1-2-.63A2.58,2.58,0,0,1,525.9,199.58Z"/><path class="cls-4" d="M531.5,192.61v-2.08h2.37v2.08Zm.06,9.36v-8.29h2.24V202Z"/><path class="cls-4" d="M539.46,202.13a4.44,4.44,0,0,1-2.31-.55,3.31,3.31,0,0,1-1.38-1.51,5.08,5.08,0,0,1-.46-2.23,5.17,5.17,0,0,1,.47-2.25,3.52,3.52,0,0,1,1.39-1.52,4.39,4.39,0,0,1,2.29-.55,4.51,4.51,0,0,1,2.31.54,3.45,3.45,0,0,1,1.37,1.51,5.06,5.06,0,0,1,.46,2.24,5.15,5.15,0,0,1-.46,2.24,3.49,3.49,0,0,1-1.39,1.53A4.46,4.46,0,0,1,539.46,202.13Zm0-1.95a1.62,1.62,0,0,0,1.38-.63,2.77,2.77,0,0,0,.47-1.74,2.73,2.73,0,0,0-.47-1.72,1.64,1.64,0,0,0-1.38-.62,1.66,1.66,0,0,0-1.39.62,2.85,2.85,0,0,0-.47,1.75,2.79,2.79,0,0,0,.47,1.72A1.66,1.66,0,0,0,539.46,200.18Z"/><path class="cls-4" d="M545.12,202v-8.29h1.94l.16,1a2.48,2.48,0,0,1,.95-.86,3,3,0,0,1,1.51-.34,2.9,2.9,0,0,1,2.07.74,3,3,0,0,1,.78,2.27V202h-2.24v-5c0-.94-.44-1.41-1.31-1.41a1.8,1.8,0,0,0-1.12.37,1.25,1.25,0,0,0-.5,1.07v5Z"/><path class="cls-7" d="M481.14,169.93a1.21,1.21,0,0,1-.85-.35,1.19,1.19,0,0,1-.35-.85v-5.91a1.16,1.16,0,0,1,.35-.84,1.18,1.18,0,0,1,.85-.36,1.21,1.21,0,0,1,1.2,1.2v5.91a1.2,1.2,0,0,1-1.2,1.2Z"/><path class="cls-7" d="M488.9,171.9a1.23,1.23,0,0,1-1.2-1.2V158.27a1.21,1.21,0,0,1,1.2-1.2,1.21,1.21,0,0,1,.85.35,1.19,1.19,0,0,1,.35.85V170.7a1.16,1.16,0,0,1-.35.84A1.18,1.18,0,0,1,488.9,171.9Z"/><path class="cls-7" d="M504.35,170.05a1.19,1.19,0,0,1-.85-.35,1.21,1.21,0,0,1-.35-.85V155.69a1.21,1.21,0,0,1,.35-.85,1.19,1.19,0,0,1,.85-.35,1.2,1.2,0,0,1,1.2,1.2v13.16a1.2,1.2,0,0,1-1.2,1.2Z"/><path class="cls-7" d="M496.58,172a1.21,1.21,0,0,1-1.2-1.2V160.18a1.21,1.21,0,0,1,1.2-1.2,1.21,1.21,0,0,1,.85.35,1.19,1.19,0,0,1,.35.85v10.64a1.19,1.19,0,0,1-.35.85A1.21,1.21,0,0,1,496.58,172Z"/><path class="cls-7" d="M504.28,148.72a1.21,1.21,0,0,1-1.2-1.2v-5.2h-5.2a1.21,1.21,0,0,1-1.2-1.2,1.21,1.21,0,0,1,.35-.85,1.19,1.19,0,0,1,.85-.35h6.4a1.19,1.19,0,0,1,.85.35,1.21,1.21,0,0,1,.35.85v6.4a1.21,1.21,0,0,1-1.2,1.2Z"/><path class="cls-7" d="M481.14,158a1.22,1.22,0,0,1-.67-.2,1.25,1.25,0,0,1-.45-.54,1.17,1.17,0,0,1-.06-.69,1.14,1.14,0,0,1,.33-.62l9.25-9.25a1.23,1.23,0,0,1,.85-.35,1.21,1.21,0,0,1,.85.35l2.8,2.8,9.24-9.22a1.4,1.4,0,0,1,.39-.26,1.25,1.25,0,0,1,.46-.09,1.26,1.26,0,0,1,.85.36,1.16,1.16,0,0,1,.26.39,1.18,1.18,0,0,1,.09.46,1.25,1.25,0,0,1-.09.46,1.22,1.22,0,0,1-.26.38l-10.07,10.09a1.21,1.21,0,0,1-1.7,0l-2.8-2.82-8.4,8.4a1.23,1.23,0,0,1-.4.27A1.09,1.09,0,0,1,481.14,158Z"/><path class="cls-5" d="M493.28,172.44c-17.2,0-31.6-13.82-35.6-18.05a3,3,0,0,1,0-4c4-4.25,18.4-18.07,35.6-18.07s31.6,13.82,35.6,18.07a2.93,2.93,0,0,1,0,4C524.88,158.62,510.48,172.44,493.28,172.44Zm0-37.74c-16.24,0-30,13.24-33.85,17.3a.57.57,0,0,0-.14.37.55.55,0,0,0,.14.37c3.83,4.06,17.6,17.3,33.85,17.3s30-13.24,33.86-17.3a.55.55,0,0,0,.14-.37.57.57,0,0,0-.14-.37h0c-3.84-4.06-17.61-17.3-33.86-17.3Z"/><path class="cls-4" d="M580,389.67v-11h4.32a5.09,5.09,0,0,1,4,1.48,6.88,6.88,0,0,1,0,8.08,5.05,5.05,0,0,1-4,1.48Zm4.2-9h-1.84v6.94h1.84a2.88,2.88,0,0,0,2.29-.85,4.93,4.93,0,0,0,0-5.23A2.88,2.88,0,0,0,584.21,380.68Z"/><path class="cls-4" d="M596.5,389.67l-.14-.89a2.5,2.5,0,0,1-.94.75,3.54,3.54,0,0,1-1.55.3,3.11,3.11,0,0,1-2.09-.65,2.25,2.25,0,0,1-.76-1.8,2.13,2.13,0,0,1,1.4-2.19,5.32,5.32,0,0,1,1.4-.35l1.66-.22a1.29,1.29,0,0,0,.57-.18.42.42,0,0,0,.13-.35,1.13,1.13,0,0,0-.3-.76,1.34,1.34,0,0,0-1-.35,1.69,1.69,0,0,0-1,.28,1.07,1.07,0,0,0-.48.81h-2.08a2.64,2.64,0,0,1,.44-1.41,3,3,0,0,1,1.24-1,4.61,4.61,0,0,1,2-.4,3.46,3.46,0,0,1,2.56.89,3.31,3.31,0,0,1,.89,2.47v5.09Zm-.3-2.8V386l-1.82.24a2,2,0,0,0-.87.31.75.75,0,0,0-.3.64.79.79,0,0,0,.34.69,1.61,1.61,0,0,0,.94.24,2.33,2.33,0,0,0,1.18-.31A1,1,0,0,0,596.2,386.87Z"/><path class="cls-4" d="M600.88,387.29v-4.1h-1.34v-1.74h.85a.75.75,0,0,0,.46-.11c.09-.06.14-.22.16-.45l.24-1.91h1.86v2.4H605v1.81h-1.86v3.71a1.18,1.18,0,0,0,.23.82,1.25,1.25,0,0,0,.89.24h.9v1.74a5.94,5.94,0,0,1-.75.09,8.64,8.64,0,0,1-.88,0,2.75,2.75,0,0,1-2-.62A2.61,2.61,0,0,1,600.88,387.29Z"/><path class="cls-4" d="M611.93,389.67l-.14-.89a2.5,2.5,0,0,1-.94.75,3.56,3.56,0,0,1-1.56.3,3.1,3.1,0,0,1-2.08-.65,2.25,2.25,0,0,1-.76-1.8,2.31,2.31,0,0,1,.38-1.41,2.28,2.28,0,0,1,1-.78,5.32,5.32,0,0,1,1.4-.35l1.66-.22a1.29,1.29,0,0,0,.57-.18.42.42,0,0,0,.13-.35,1.13,1.13,0,0,0-.3-.76,1.36,1.36,0,0,0-1.06-.35,1.73,1.73,0,0,0-1,.28,1.06,1.06,0,0,0-.47.81H606.7a2.64,2.64,0,0,1,.44-1.41,2.92,2.92,0,0,1,1.24-1,4.61,4.61,0,0,1,2-.4,3.46,3.46,0,0,1,2.56.89,3.31,3.31,0,0,1,.89,2.47v5.09Zm-.3-2.8V386l-1.82.24a2,2,0,0,0-.87.31.75.75,0,0,0-.3.64.79.79,0,0,0,.34.69,1.61,1.61,0,0,0,.94.24,2.33,2.33,0,0,0,1.18-.31A1,1,0,0,0,611.63,386.87Z"/><path class="cls-4" d="M561.41,405.54h2.16a3.74,3.74,0,0,1-.53,1.6,3.31,3.31,0,0,1-1.26,1.23,4,4,0,0,1-2,.46,4.46,4.46,0,0,1-2.25-.53,3.37,3.37,0,0,1-1.37-1.5,5.18,5.18,0,0,1-.46-2.22,5.26,5.26,0,0,1,.47-2.27,3.47,3.47,0,0,1,1.38-1.53,4.34,4.34,0,0,1,2.27-.56,4,4,0,0,1,2,.47A3.22,3.22,0,0,1,563,401.9a3.89,3.89,0,0,1,.5,1.62h-2.16a1.49,1.49,0,0,0-1.58-1.34,1.56,1.56,0,0,0-1.34.63,2.93,2.93,0,0,0-.47,1.77,2.72,2.72,0,0,0,.46,1.68,1.53,1.53,0,0,0,1.33.62,1.69,1.69,0,0,0,1.09-.34A1.56,1.56,0,0,0,561.41,405.54Z"/><path class="cls-4" d="M569,408.83a4.54,4.54,0,0,1-2.31-.54,3.42,3.42,0,0,1-1.38-1.51,5.27,5.27,0,0,1-.46-2.24,5.09,5.09,0,0,1,.47-2.24,3.41,3.41,0,0,1,1.39-1.52,4.39,4.39,0,0,1,2.29-.56,4.49,4.49,0,0,1,2.31.55,3.45,3.45,0,0,1,1.38,1.5,5.24,5.24,0,0,1,.45,2.24,5.12,5.12,0,0,1-.46,2.24,3.49,3.49,0,0,1-1.39,1.53A4.34,4.34,0,0,1,569,408.83Zm0-1.95a1.62,1.62,0,0,0,1.38-.62,2.82,2.82,0,0,0,.47-1.75,2.75,2.75,0,0,0-.47-1.72,1.62,1.62,0,0,0-1.38-.61,1.65,1.65,0,0,0-1.39.61,2.87,2.87,0,0,0-.47,1.75,2.79,2.79,0,0,0,.47,1.72A1.63,1.63,0,0,0,569,406.88Z"/><path class="cls-4" d="M574.81,408.67v-8.29h1.94l.17,1.17a2.67,2.67,0,0,1,.88-.89,2.47,2.47,0,0,1,1.35-.36l.37,0a1.8,1.8,0,0,1,.32.05v2h-.63a2.53,2.53,0,0,0-1.61.44,1.79,1.79,0,0,0-.55,1.48v4.37Z"/><path class="cls-4" d="M581.18,408.67v-8.29h1.93l.18,1.17a2.58,2.58,0,0,1,.88-.89,2.42,2.42,0,0,1,1.34-.36l.38,0a1.66,1.66,0,0,1,.31.05v2h-.62a2.55,2.55,0,0,0-1.62.44,1.82,1.82,0,0,0-.54,1.48v4.37Z"/><path class="cls-4" d="M595.08,406.16a2.82,2.82,0,0,1-.56,1.3,3.24,3.24,0,0,1-1.28,1,4.78,4.78,0,0,1-2,.37,4.45,4.45,0,0,1-2.26-.53,3.39,3.39,0,0,1-1.35-1.5,5.72,5.72,0,0,1,0-4.47,3.58,3.58,0,0,1,1.38-1.55,4.23,4.23,0,0,1,2.24-.56,4,4,0,0,1,2.14.54,3.34,3.34,0,0,1,1.3,1.46,4.81,4.81,0,0,1,.43,2.08,3.54,3.54,0,0,1,0,.45c0,.16,0,.3,0,.42h-5.6a2.59,2.59,0,0,0,.55,1.41,1.6,1.6,0,0,0,1.29.51,2,2,0,0,0,1-.24,1.27,1.27,0,0,0,.58-.69Zm-3.75-4.27c-1,0-1.59.57-1.8,1.73h2.94a.53.53,0,0,0,.33-.08.38.38,0,0,0,.09-.28,1.39,1.39,0,0,0-.4-.94A1.51,1.51,0,0,0,591.33,401.89Z"/><path class="cls-4" d="M596.82,408.67V397.23h2.24v11.44Z"/><path class="cls-4" d="M606.24,408.67l-.15-.89a2.46,2.46,0,0,1-.93.75,3.59,3.59,0,0,1-1.56.3,3.11,3.11,0,0,1-2.09-.65,2.25,2.25,0,0,1-.76-1.8,2.38,2.38,0,0,1,.38-1.41,2.33,2.33,0,0,1,1-.78,5.42,5.42,0,0,1,1.4-.35l1.66-.22a1.29,1.29,0,0,0,.57-.18.42.42,0,0,0,.14-.35,1.14,1.14,0,0,0-.31-.76,1.34,1.34,0,0,0-1.05-.35,1.69,1.69,0,0,0-1,.28,1.07,1.07,0,0,0-.48.81H601a2.64,2.64,0,0,1,.44-1.41,3,3,0,0,1,1.24-1,4.61,4.61,0,0,1,2-.4,3.5,3.5,0,0,1,2.57.89,3.35,3.35,0,0,1,.88,2.47v5.09Zm-.31-2.8V405l-1.82.24a2,2,0,0,0-.87.31.75.75,0,0,0-.3.64.79.79,0,0,0,.34.69,1.64,1.64,0,0,0,.94.24,2.33,2.33,0,0,0,1.18-.31A1,1,0,0,0,605.93,405.87Z"/><path class="cls-4" d="M610.61,406.29v-4.1h-1.34v-1.74h.85a.73.73,0,0,0,.46-.11c.09-.06.14-.22.16-.45L611,398h1.86v2.4h1.87v1.81h-1.86v3.71a1.18,1.18,0,0,0,.23.82,1.26,1.26,0,0,0,.89.24h.9v1.74a5.94,5.94,0,0,1-.75.09,8.51,8.51,0,0,1-.88,0,2.75,2.75,0,0,1-2-.62A2.61,2.61,0,0,1,610.61,406.29Z"/><path class="cls-4" d="M616.36,399.31v-2.08h2.36v2.08Zm.06,9.36v-8.29h2.24v8.29Z"/><path class="cls-4" d="M624.45,408.83a4.47,4.47,0,0,1-2.3-.54,3.44,3.44,0,0,1-1.39-1.51,5.27,5.27,0,0,1-.45-2.24,5.09,5.09,0,0,1,.46-2.24,3.41,3.41,0,0,1,1.39-1.52,4.39,4.39,0,0,1,2.29-.56,4.49,4.49,0,0,1,2.31.55,3.39,3.39,0,0,1,1.38,1.5,5.24,5.24,0,0,1,.45,2.24,5.12,5.12,0,0,1-.46,2.24,3.53,3.53,0,0,1-1.38,1.53A4.4,4.4,0,0,1,624.45,408.83Zm0-1.95a1.62,1.62,0,0,0,1.38-.62,2.82,2.82,0,0,0,.48-1.75,2.75,2.75,0,0,0-.48-1.72,1.87,1.87,0,0,0-2.76,0,2.8,2.8,0,0,0-.48,1.75,2.73,2.73,0,0,0,.48,1.72A1.6,1.6,0,0,0,624.45,406.88Z"/><path class="cls-4" d="M630.25,408.67v-8.29h1.94l.16,1a2.48,2.48,0,0,1,.95-.86,3.15,3.15,0,0,1,1.51-.34,2.84,2.84,0,0,1,2.07.75,3,3,0,0,1,.78,2.26v5.44h-2.24v-5c0-.94-.44-1.41-1.31-1.41a1.86,1.86,0,0,0-1.12.37,1.26,1.26,0,0,0-.5,1.07v5Z"/><path class="cls-6" d="M586.44,337.84a1.25,1.25,0,0,1-.85-.35,1.23,1.23,0,0,1-.35-.85V323a1.21,1.21,0,0,1,1.2-1.2,1.18,1.18,0,0,1,.85.36,1.16,1.16,0,0,1,.35.84v13.66a1.19,1.19,0,0,1-.35.85A1.21,1.21,0,0,1,586.44,337.84Z"/><path class="cls-6" d="M593.32,337.84a1.2,1.2,0,0,1-1.2-1.2v-22.4a1.2,1.2,0,1,1,2.4,0v22.4a1.2,1.2,0,0,1-1.2,1.2Z"/><path class="cls-6" d="M600.29,337.84a1.2,1.2,0,0,1-1.2-1.2V328a1.21,1.21,0,0,1,.35-.85,1.19,1.19,0,0,1,.85-.35,1.2,1.2,0,0,1,1.2,1.2v8.64a1.19,1.19,0,0,1-.35.85A1.21,1.21,0,0,1,600.29,337.84Z"/><path class="cls-6" d="M607.17,337.84a1.21,1.21,0,0,1-.85-.35,1.19,1.19,0,0,1-.35-.85V323a1.16,1.16,0,0,1,.35-.84,1.18,1.18,0,0,1,.85-.36,1.21,1.21,0,0,1,1.2,1.2v13.66a1.2,1.2,0,0,1-1.2,1.2Z"/><path class="cls-5" d="M605.55,360.15a2.29,2.29,0,0,1-1-.22,2.22,2.22,0,0,1-.76-.63l-4.21-5.76a.39.39,0,0,0-.11-.06h-.06l-5.53,0h-.08l-.08.05-4.3,5.72a2.15,2.15,0,0,1-2.49.67l-5.68-2.4a2.14,2.14,0,0,1-1.27-2.24l1.09-7.06a.31.31,0,0,0-.05-.12l0,0-3.89-3.93-.06-.07-.09,0-7.07,1a2.15,2.15,0,0,1-1.34-.26,2.18,2.18,0,0,1-.9-1L565.36,338a2.15,2.15,0,0,1-.07-1.35,2.21,2.21,0,0,1,.77-1.13l5.77-4.21,0-.11v-5.46a.47.47,0,0,0-.07-.12l-5.69-4.47a2.19,2.19,0,0,1-.65-2.49l2.4-5.68a2.15,2.15,0,0,1,2.22-1.27l7.2,1,.13-.06,0,0,3.64-3.6.06-.05a.74.74,0,0,0,0-.14l-.87-7.18a2.25,2.25,0,0,1,.29-1.32,2.2,2.2,0,0,1,1-.89l5.71-2.33a2.15,2.15,0,0,1,1.35-.07,2.2,2.2,0,0,1,1.13.74l4.4,5.77.13,0h.08l5.12,0h.08l.12-.07,4.44-5.69a2.18,2.18,0,0,1,2.48-.65l5.68,2.4a2.13,2.13,0,0,1,1,.9,2.17,2.17,0,0,1,.28,1.32l-1,7.2.06.12,0,0,3.6,3.64.06.06.14,0,7.2-.87a2.17,2.17,0,0,1,2.18,1.31l2.33,5.7a2.18,2.18,0,0,1-.67,2.48l-5.78,4.4,0,.13v.06l-.06,5.32v0a.61.61,0,0,0,0,.12l5.71,4.28a2.13,2.13,0,0,1,.68,2.49l-2.4,5.68a2.08,2.08,0,0,1-.92,1,2.12,2.12,0,0,1-1.33.26l-7.06-1.09a.29.29,0,0,0-.13,0l0,0-3.94,3.89-.06.06v.09l1,7.07a2.13,2.13,0,0,1-.27,1.33,2.08,2.08,0,0,1-1,.91L606.32,360A2.21,2.21,0,0,1,605.55,360.15Zm-6-9.07a2.63,2.63,0,0,1,2,1l4.1,5.6,5.27-2.15-1-6.86a2.67,2.67,0,0,1,.13-1.19,2.63,2.63,0,0,1,.67-1l3.88-3.84a2.58,2.58,0,0,1,1-.65,2.49,2.49,0,0,1,1.21-.12l6.85,1.05,2.21-5.24-5.55-4.16a2.6,2.6,0,0,1-1-2.12l0-5.25a2.72,2.72,0,0,1,.25-1.16,2.6,2.6,0,0,1,.73-.94l5.6-4.29-2.16-5.3-7,.85a2.64,2.64,0,0,1-1.18-.15,2.71,2.71,0,0,1-1-.65l-3.55-3.6a2.57,2.57,0,0,1-.66-1,2.54,2.54,0,0,1-.14-1.19l.92-7-5.28-2.22-4.36,5.56a2.66,2.66,0,0,1-2.11,1l-5.05,0a2.64,2.64,0,0,1-1.17-.24,2.57,2.57,0,0,1-.93-.74l-4.3-5.6-5.3,2.16.86,7a2.79,2.79,0,0,1-.16,1.18,2.68,2.68,0,0,1-.64,1l-3.6,3.56a2.75,2.75,0,0,1-1,.65,2.79,2.79,0,0,1-1.18.15l-7-.93-2.22,5.28,5.55,4.35a2.72,2.72,0,0,1,.73,1,2.76,2.76,0,0,1,.24,1.17v5.25a2.5,2.5,0,0,1-.26,1.17,2.55,2.55,0,0,1-.75.94l-5.6,4.09,2.14,5.26,6.87-1a2.68,2.68,0,0,1,1.19.14,2.61,2.61,0,0,1,1,.66l3.84,3.89a2.57,2.57,0,0,1,.66,1,2.62,2.62,0,0,1,.12,1.21l-1.06,6.85,5.24,2.2,4.16-5.55a2.52,2.52,0,0,1,.94-.74,2.66,2.66,0,0,1,1.18-.24l5.46,0Z"/><rect class="cls-3" x="502.93" y="349.72" width="49.1" height="3"/><polygon class="cls-3" points="505.99 361.69 487.86 351.22 505.99 340.75 505.99 361.69"/><rect class="cls-3" x="238.28" y="349.72" width="49.1" height="3"/><polygon class="cls-3" points="284.31 340.75 302.44 351.22 284.31 361.69 284.31 340.75"/></g></svg>